<svg width="24" height="24" viewBox="0 0 24 24" fill="none" xmlns="http://www.w3.org/2000/svg">
<g clip-path="url(#clip0_470_7914)">
<path d="M23.8409 12.2245C23.8409 11.2413 23.7625 10.5237 23.5928 9.77963H12.5625V14.2176H19.0371C18.9066 15.3205 18.2017 16.9815 16.6352 18.0976L16.6133 18.2461L20.1008 20.9963L20.3425 21.0209C22.5615 18.9347 23.8409 15.8653 23.8409 12.2245" fill="#4285F4"/>
<path d="M12.5616 23.9176C15.7336 23.9176 18.3965 22.8545 20.3416 21.0209L16.6343 18.0976C15.6422 18.8018 14.3107 19.2934 12.5616 19.2934C9.45483 19.2934 6.81801 17.2074 5.87806 14.324L5.74028 14.3359L2.11383 17.1927L2.06641 17.3269C3.99833 21.2334 7.96665 23.9176 12.5616 23.9176Z" fill="#34A853"/>
<path d="M5.87922 14.324C5.63121 13.5799 5.48767 12.7825 5.48767 11.9588C5.48767 11.1349 5.63121 10.3377 5.86617 9.59357L5.8596 9.4351L2.18771 6.53238L2.06757 6.59055C1.27134 8.21165 0.814453 10.0321 0.814453 11.9588C0.814453 13.8854 1.27134 15.7058 2.06757 17.3269L5.87922 14.324" fill="#FBBC05"/>
<path d="M12.5616 4.62406C14.7676 4.62406 16.2557 5.59404 17.1042 6.40464L20.4198 3.10931C18.3835 1.18263 15.7336 3.05176e-05 12.5616 3.05176e-05C7.96665 3.05176e-05 3.99833 2.68409 2.06641 6.59059L5.865 9.59362C6.81801 6.71023 9.45482 4.62406 12.5616 4.62406" fill="#EB4335"/>
</g>
<defs>
<clipPath id="clip0_470_7914">
<rect width="23.04" height="24" fill="white" transform="translate(0.8125)"/>
</clipPath>
</defs>
</svg>
